<svg width="763" height="763" viewBox="0 0 763 763" fill="none" xmlns="http://www.w3.org/2000/svg">
<path d="M341.869 530.805C306.092 558.716 261.507 572.902 216.18 570.795C170.852 568.689 127.775 550.43 94.7413 519.321C61.7071 488.212 40.8971 446.308 36.0756 401.188C31.2541 356.069 42.7396 310.714 68.4544 273.327C94.1691 235.94 132.415 208.991 176.274 197.354C220.133 185.717 266.708 190.161 307.575 209.882C348.442 229.603 380.902 263.298 399.082 304.873C417.263 346.448 419.965 393.157 406.698 436.551" stroke="white" stroke-width="70"/>
<path d="M376.5 415.5C379 403.5 440 418.5 442 435C444 451.5 414.5 492.5 414.5 492.5L368.5 435C368.5 435 374 427.5 376.5 415.5Z" fill="white"/>
<path d="M278 383L447.512 600.731C447.967 601.316 448.875 601.225 449.198 600.558C509.183 476.646 575.507 332.505 742 210" stroke="#06E864" stroke-width="70"/>
</svg>
